# xmcd CD database file
#
# Track frame offsets:
#	150
#	25214
#	49107
#	72998
#	97233
#	121966
#	164040
#	193465
#	225938
#
# Disc length: 3295 seconds
#
# Revision: 0
# Processed by: cddbd v1.5.2PL0 Copyright (c) Steve Scherf et al.
# Submitted via: CDex 1.79
#
DISCID=800cdd09
DTITLE=John Hiatt and The Goners - Live In Switzerland 2003
DYEAR=2014
DGENRE=Blues
TTITLE0=Lincoln Town
TTITLE1=The Tiki Bar Is Open
TTITLE2=Paper Thin
TTITLE3=Circle Back
TTITLE4=Almost Fed Up With The Blues
TTITLE5=Riding With The King
TTITLE6=Is Anybody There?
TTITLE7=Slow Turning
TTITLE8=Tennessee Plates
EXTD=YEAR: 2014
EXTT0=
EXTT1=
EXTT2=
EXTT3=
EXTT4=
EXTT5=
EXTT6=
EXTT7=
EXTT8=
PLAYORDER=
